<svg xmlns:xlink="http://www.w3.org/1999/xlink" version="1.1" xmlns="http://www.w3.org/2000/svg" width="50" height="50" viewBox="0 0 32 32">
        <path d="M14.083 31.521c-0.069 0-0.139-0.011-0.208-0.033-0.299-0.096-0.487-0.392-0.455-0.703l1.253-11.639h-8.673c-0.196 0-0.383-0.085-0.508-0.236-0.128-0.149-0.183-0.348-0.149-0.54l2.875-17.333c0.053-0.321 0.332-0.557 0.656-0.557h10.541c0.224 0 0.433 0.112 0.556 0.3 0.123 0.191 0.144 0.424 0.056 0.633l-3.601 8.401h9.573c0.24 0 0.461 0.128 0.58 0.335s0.119 0.463-0.003 0.668l-11.917 20.375c-0.124 0.207-0.345 0.329-0.576 0.329zM6.785 17.812h8.631c0.191 0 0.369 0.081 0.496 0.221s0.188 0.328 0.167 0.517l-1 9.28 9.756-16.685h-9.419c-0.224 0-0.433-0.112-0.556-0.3-0.123-0.191-0.143-0.423-0.056-0.633l3.601-8.404h-8.965l-2.655 16.004z" fill="#FF7A59"></path>
        </svg>