<svg xmlns:xlink="http://www.w3.org/1999/xlink" version="1.1" xmlns="http://www.w3.org/2000/svg" width="50" height="50" viewBox="0 0 32 32">
        <path d="M19.832 31.835c-0.592 0-1.168-0.212-1.62-0.595-0.559-0.476-0.879-1.169-0.879-1.904v-5.336c0-0.735-0.599-1.333-1.333-1.333s-1.333 0.599-1.333 1.333v5.297c0 0.745-0.327 1.448-0.896 1.932-0.564 0.476-1.315 0.689-2.052 0.565-6.936-1.143-11.781-7.639-11.781-15.795 0-8.183 4.865-14.681 11.832-15.803 0.727-0.117 1.467 0.093 2.019 0.564 0.559 0.476 0.879 1.168 0.879 1.903v5.336c0 0.735 0.599 1.333 1.333 1.333s1.333-0.599 1.333-1.333v-5.297c0-0.745 0.327-1.448 0.896-1.932 0.563-0.475 1.309-0.689 2.051-0.568 6.937 1.144 11.783 7.64 11.783 15.797 0 8.183-4.864 14.681-11.832 15.804-0.133 0.021-0.264 0.031-0.399 0.031zM16 21.333c1.472 0 2.667 1.197 2.667 2.667v5.337c0 0.344 0.148 0.665 0.409 0.887 0.257 0.22 0.604 0.317 0.943 0.263 6.307-1.019 10.711-6.973 10.711-14.488 0-7.489-4.387-13.444-10.667-14.48-0.344-0.056-0.703 0.044-0.972 0.271-0.271 0.229-0.425 0.561-0.425 0.915v5.296c0 1.471-1.196 2.667-2.667 2.667s-2.667-1.196-2.667-2.667v-5.335c0-0.341-0.149-0.667-0.411-0.888-0.257-0.219-0.6-0.317-0.941-0.261-6.307 1.015-10.712 6.972-10.712 14.487 0 7.489 4.387 13.444 10.667 14.479 0.353 0.057 0.704-0.043 0.972-0.269 0.269-0.228 0.424-0.561 0.424-0.916v-5.296c0.003-1.469 1.199-2.667 2.669-2.667zM8.667 10.583c-0.008 0-0.015 0-0.023 0-0.368-0.013-0.656-0.321-0.644-0.689 0.103-3.099-0.488-5.408-1.663-6.503-0.269-0.251-0.284-0.672-0.033-0.943 0.251-0.269 0.675-0.284 0.943-0.033 1.873 1.747 2.168 5.055 2.085 7.524-0.011 0.363-0.307 0.644-0.665 0.644zM6.593 16.341c-0.907 0-1.759-0.083-2.239-0.336-0.693-0.365-0.567-1.377-0.339-3.216 0.093-0.751 0.244-1.971 0.167-2.385-0.147-0.052-0.376-0.024-0.828 0.049-0.464 0.075-1.039 0.168-1.771 0.128-0.368-0.019-0.649-0.333-0.631-0.701 0.020-0.368 0.332-0.648 0.701-0.629 0.591 0.032 1.065-0.045 1.487-0.113 0.647-0.104 1.315-0.212 1.924 0.245 0.625 0.469 0.524 1.547 0.273 3.569-0.079 0.629-0.191 1.536-0.169 1.944 0.792 0.209 2.929 0.101 4.655-0.14 0.364-0.052 0.701 0.203 0.752 0.568s-0.203 0.7-0.567 0.752c-0.445 0.063-1.996 0.265-3.416 0.265zM9.677 7.997c-0.371 0-0.777-0.012-1.168-0.051-0.367-0.035-0.636-0.36-0.6-0.727 0.035-0.364 0.351-0.633 0.727-0.6 1.025 0.097 2.244 0 2.255 0 0.36-0.031 0.689 0.243 0.719 0.611 0.029 0.367-0.244 0.688-0.611 0.719-0.036 0.001-0.609 0.048-1.321 0.048zM6.452 21.671c-0.936 0-1.984-0.087-3.015-0.172-0.823-0.068-1.611-0.135-2.257-0.144-0.368-0.005-0.663-0.307-0.657-0.675 0.005-0.369 0.273-0.661 0.676-0.659 0.673 0.011 1.493 0.079 2.348 0.148 1.747 0.145 3.917 0.327 4.725-0.079 1.383-0.693 4.956-3.948 5.060-4.769 0-0.368 0.299-0.661 0.667-0.661s0.667 0.304 0.667 0.672c0 1.677-4.66 5.381-5.796 5.951-0.583 0.293-1.437 0.388-2.417 0.388zM5.124 28.375c-0.183 0-0.364-0.076-0.496-0.221-0.247-0.276-0.223-0.695 0.051-0.943 1.633-1.464 3.868-3.211 5.237-3.211 0.368 0 0.667 0.299 0.667 0.667 0 0.367-0.299 0.667-0.667 0.667-0.528 0-1.985 0.751-4.347 2.869-0.127 0.115-0.287 0.172-0.445 0.172zM4.667 20.667c-0.368 0-0.667-0.3-0.667-0.667v-1.333c0-0.367 0.299-0.667 0.667-0.667s0.667 0.3 0.667 0.667v1.333c0 0.367-0.299 0.667-0.667 0.667zM15.249 20c-1.287 0-2.835-1.091-3.477-1.828-0.241-0.277-0.212-0.697 0.065-0.939 0.277-0.244 0.699-0.215 0.941 0.064 0.485 0.557 1.689 1.369 2.471 1.369 0.368 0 0.667 0.299 0.667 0.667 0 0.367-0.297 0.667-0.667 0.667zM25.208 29.764c-0.163 0-0.327-0.059-0.456-0.179-1.872-1.745-2.167-5.055-2.084-7.524 0.012-0.368 0.321-0.651 0.689-0.644 0.367 0.013 0.655 0.321 0.643 0.689-0.103 3.099 0.488 5.409 1.663 6.503 0.269 0.252 0.284 0.675 0.032 0.943-0.131 0.141-0.308 0.212-0.487 0.212zM28.011 22.953c-0.367 0-0.732-0.079-1.077-0.336-0.627-0.469-0.525-1.547-0.273-3.569 0.080-0.629 0.192-1.537 0.169-1.944-0.789-0.208-2.929-0.103-4.655 0.14-0.367 0.052-0.7-0.203-0.752-0.568-0.052-0.363 0.203-0.701 0.568-0.752 0.729-0.103 4.424-0.581 5.653 0.071 0.695 0.368 0.568 1.38 0.339 3.219-0.092 0.751-0.243 1.971-0.167 2.385 0.148 0.052 0.38 0.024 0.828-0.052 0.465-0.075 1.044-0.167 1.771-0.128 0.368 0.021 0.649 0.333 0.632 0.7-0.020 0.367-0.343 0.649-0.701 0.631-0.588-0.031-1.065 0.045-1.487 0.113-0.28 0.047-0.567 0.091-0.848 0.091zM23.427 25.384c-0.021 0-0.041 0-0.065-0.003-1.021-0.097-2.24 0-2.251 0-0.376 0.032-0.689-0.244-0.72-0.609s0.243-0.689 0.609-0.72c0.055-0.003 1.349-0.111 2.492 0 0.367 0.033 0.636 0.361 0.599 0.728-0.033 0.348-0.323 0.604-0.664 0.604zM18 17.339c-0.367 0-0.667-0.305-0.667-0.672 0-1.679 4.66-5.381 5.797-5.949 1.14-0.572 3.324-0.389 5.44-0.215 0.82 0.068 1.605 0.135 2.251 0.144 0.368 0.005 0.663 0.309 0.655 0.677-0.004 0.368-0.305 0.649-0.676 0.656-0.669-0.009-1.487-0.077-2.339-0.148-1.749-0.145-3.928-0.325-4.735 0.079-1.384 0.693-4.957 3.949-5.060 4.769 0 0.365-0.3 0.659-0.667 0.659zM22.084 8c-0.368 0-0.667-0.299-0.667-0.667s0.299-0.667 0.667-0.667c0.528 0 1.984-0.752 4.347-2.871 0.273-0.247 0.695-0.224 0.94 0.051 0.248 0.275 0.224 0.696-0.049 0.941-1.633 1.465-3.869 3.212-5.237 3.212zM27.333 14c-0.367 0-0.667-0.299-0.667-0.667v-1.333c0-0.368 0.3-0.667 0.667-0.667s0.667 0.299 0.667 0.667v1.333c0 0.368-0.3 0.667-0.667 0.667zM19.724 14.933c-0.188 0-0.372-0.079-0.503-0.229-0.485-0.559-1.691-1.371-2.471-1.371-0.367 0-0.667-0.299-0.667-0.667s0.299-0.667 0.667-0.667c1.289 0 2.836 1.092 3.477 1.831 0.241 0.279 0.212 0.699-0.067 0.94-0.128 0.109-0.283 0.163-0.437 0.163z" fill="#FF7A59"></path>
        </svg>