<svg xmlns:xlink="http://www.w3.org/1999/xlink" version="1.1" xmlns="http://www.w3.org/2000/svg" width="50" height="50" viewBox="0 0 32 32">
        <path d="M20.64 20.841h-9.333c-0.368 0-0.667-0.3-0.667-0.667v-2.825c-2.545-1.568-3.996-4.364-3.996-7.744 0-4.972 4.32-9.175 9.432-9.175 5.115 0 9.277 4.116 9.277 9.175 0 3.361-1.469 6.16-4.047 7.744v2.825c0 0.367-0.297 0.667-0.667 0.667zM11.975 19.508h8v-2.541c0-0.243 0.133-0.467 0.344-0.584 2.355-1.301 3.703-3.769 3.703-6.777 0-4.324-3.564-7.841-7.944-7.841-4.389 0-8.099 3.588-8.099 7.841 0 3.071 1.297 5.475 3.652 6.777 0.212 0.117 0.344 0.341 0.344 0.584v2.541zM19.973 23.508h-8c-0.368 0-0.667-0.3-0.667-0.667 0-0.369 0.299-0.667 0.667-0.667h8c0.368 0 0.667 0.297 0.667 0.667 0 0.367-0.297 0.667-0.667 0.667zM19.973 26.175h-8c-0.368 0-0.667-0.3-0.667-0.667 0-0.369 0.299-0.667 0.667-0.667h8c0.368 0 0.667 0.297 0.667 0.667 0 0.367-0.297 0.667-0.667 0.667zM15.975 31.571c-2.455 0-4.041-1.333-4.041-3.396 0-0.369 0.299-0.667 0.667-0.667s0.667 0.297 0.667 0.667c0 1.861 1.893 2.063 2.708 2.063s2.708-0.2 2.708-2.063c0-0.369 0.3-0.667 0.667-0.667 0.368 0 0.667 0.297 0.667 0.667 0 2.063-1.587 3.396-4.041 3.396zM14.697 20.841c-0.293 0-0.561-0.195-0.643-0.492l-2.723-10c-0.097-0.355 0.112-0.723 0.468-0.819 0.355-0.093 0.721 0.113 0.819 0.469l2.723 10c0.097 0.357-0.112 0.724-0.468 0.817-0.060 0.016-0.119 0.024-0.176 0.024zM17.307 20.841c-0.057 0-0.117-0.008-0.175-0.024-0.357-0.096-0.567-0.467-0.469-0.82l2.723-10c0.097-0.356 0.465-0.563 0.819-0.468 0.356 0.093 0.565 0.464 0.468 0.816l-2.723 10c-0.080 0.3-0.348 0.496-0.643 0.496zM17.228 10.564c-0.553 0-1.076-0.248-1.48-0.436-0.788-0.371-1.027-0.423-1.331-0.121-0.26 0.26-0.683 0.26-0.943 0s-0.26-0.683 0-0.943c1.005-1.004 2.111-0.487 2.84-0.143 0.795 0.373 0.991 0.396 1.243 0.143 0.26-0.26 0.683-0.26 0.943 0s0.26 0.683 0 0.943c-0.415 0.417-0.852 0.557-1.272 0.557z" fill="#425B76"></path>
        </svg>