<svg xmlns:xlink="http://www.w3.org/1999/xlink" version="1.1" xmlns="http://www.w3.org/2000/svg" width="50" height="50" viewBox="0 0 32 32">
        <path d="M16 8c6.251 0 11.333 5.084 11.333 11.333s-5.083 11.333-11.333 11.333c-6.249 0-11.333-5.084-11.333-11.333s5.084-11.333 11.333-11.333zM16 6.667c-6.996 0-12.667 5.671-12.667 12.667s5.671 12.667 12.667 12.667 12.667-5.671 12.667-12.667-5.671-12.667-12.667-12.667v0zM19.333 5.333h-6.667c-0.368 0-0.667-0.3-0.667-0.667v-4c0-0.367 0.299-0.667 0.667-0.667h6.667c0.367 0 0.667 0.3 0.667 0.667v4c0 0.367-0.3 0.667-0.667 0.667zM13.333 4h5.333v-2.667h-5.333v2.667zM13.333 5.333h1.333v2.667h-1.333v-2.667zM17.333 5.333h1.333v2.667h-1.333v-2.667zM16 28.667c-5.147 0-9.333-4.188-9.333-9.333s4.187-9.333 9.333-9.333c5.145 0 9.333 4.188 9.333 9.333s-4.188 9.333-9.333 9.333zM16 11.333c-4.412 0-8 3.588-8 8s3.588 8 8 8c4.412 0 8-3.588 8-8s-3.588-8-8-8zM16 19.333c-0.171 0-0.341-0.065-0.472-0.195-0.26-0.257-0.26-0.683 0-0.943l4-4c0.259-0.257 0.683-0.257 0.943 0 0.259 0.26 0.259 0.685 0 0.943l-4 4c-0.129 0.129-0.3 0.195-0.471 0.195z" fill="#FF7A59"></path>
        </svg>